<?xml version="1.0" standalone="no"?>
<!DOCTYPE svg PUBLIC "-//W3C//DTD SVG 20010904//EN"
 "http://www.w3.org/TR/2001/REC-SVG-20010904/DTD/svg10.dtd">
<svg version="1.0" xmlns="http://www.w3.org/2000/svg"
 width="235.000000pt" height="235.000000pt" viewBox="0 0 235.000000 235.000000"
 preserveAspectRatio="xMidYMid meet">
<metadata>
Created by potrace 1.14, written by Peter Selinger 2001-2017
</metadata>
<g transform="translate(0.000000,235.000000) scale(0.100000,-0.100000)"
fill="#000000" stroke="none">
<path d="M170 1175 l0 -1177 498 5 c542 5 577 8 765 71 379 127 640 435 724
854 13 65 17 135 17 277 0 172 -3 199 -26 286 -102 376 -355 652 -713 779
-195 69 -227 72 -772 77 l-493 5 0 -1177z m1020 701 c220 -70 366 -228 426
-461 24 -92 24 -337 1 -441 -52 -229 -164 -387 -332 -465 -108 -51 -165 -61
-372 -66 l-193 -5 0 729 c0 401 2 732 4 734 2 2 96 1 208 -2 152 -4 217 -10
258 -23z"/>
</g>
</svg>
