<svg xmlns="http://www.w3.org/2000/svg" xmlns:xlink="http://www.w3.org/1999/xlink" id="Capa_1" x="0" y="0" version="1.1" viewBox="0 0 60 60" xml:space="preserve" style="enable-background:new 0 0 60 60"><g><g><path d="M59,0H1C0.4,0,0,0.4,0,1v58c0,0.6,0.4,1,1,1h58c0.6,0,1-0.4,1-1V1C60,0.4,59.6,0,59,0z M58,58H2V2h56V58z"/><path d="M5,22h50c0.6,0,1-0.4,1-1V5c0-0.6-0.4-1-1-1H5C4.4,4,4,4.4,4,5v16C4,21.6,4.4,22,5,22z M6,6h48v14H6V6z"/><path d="M5,38h20c0.6,0,1-0.4,1-1V25c0-0.6-0.4-1-1-1H5c-0.6,0-1,0.4-1,1v12C4,37.6,4.4,38,5,38z M6,26h18v10H6V26z"/><rect width="6" height="2" x="28" y="24"/><rect width="28" height="2" x="28" y="28"/><rect width="28" height="2" x="28" y="32"/><rect width="28" height="2" x="28" y="36"/><rect width="6" height="2" x="36" y="24"/><path d="M5,48h6c0.6,0,1-0.4,1-1v-6c0-0.6-0.4-1-1-1H5c-0.6,0-1,0.4-1,1v6C4,47.6,4.4,48,5,48z M6,42h4v4H6V42z"/><rect width="2" height="2" x="14" y="41"/><rect width="12" height="2" x="14" y="45"/><rect width="2" height="2" x="18" y="41"/><path d="M42,47v-6c0-0.6-0.4-1-1-1h-6c-0.6,0-1,0.4-1,1v6c0,0.6,0.4,1,1,1h6C41.6,48,42,47.6,42,47z M40,46h-4v-4h4V46z"/><rect width="2" height="2" x="44" y="41"/><rect width="12" height="2" x="44" y="45"/><rect width="2" height="2" x="48" y="41"/><rect width="2" height="2" x="52" y="41"/><rect width="2" height="2" x="22" y="41"/><rect width="2" height="2" x="5" y="52"/><rect width="2" height="2" x="9" y="52"/><rect width="2" height="2" x="13" y="52"/><rect width="2" height="2" x="17" y="52"/><rect width="2" height="2" x="21" y="52"/><rect width="2" height="2" x="25" y="52"/><rect width="2" height="2" x="29" y="52"/><rect width="2" height="2" x="33" y="52"/><rect width="2" height="2" x="37" y="52"/><rect width="2" height="2" x="41" y="52"/><rect width="2" height="2" x="45" y="52"/><rect width="2" height="2" x="49" y="52"/><rect width="2" height="2" x="53" y="52"/></g></g></svg>